<?xml version="1.0" encoding="UTF-8" standalone="no"?>
<!-- Created with Inkscape (http://www.inkscape.org/) -->

<svg
   width="210mm"
   height="297mm"
   viewBox="0 0 210 297"
   version="1.1"
   id="svg5"
   inkscape:version="1.2.2 (b0a8486, 2022-12-01)"
   sodipodi:docname="jgvector.svg"
   xmlns:inkscape="http://www.inkscape.org/namespaces/inkscape"
   xmlns:sodipodi="http://sodipodi.sourceforge.net/DTD/sodipodi-0.dtd"
   xmlns="http://www.w3.org/2000/svg"
   xmlns:svg="http://www.w3.org/2000/svg">
  <sodipodi:namedview
     id="namedview7"
     pagecolor="#ffffff"
     bordercolor="#000000"
     borderopacity="0.25"
     inkscape:showpageshadow="2"
     inkscape:pageopacity="0.0"
     inkscape:pagecheckerboard="0"
     inkscape:deskcolor="#d1d1d1"
     inkscape:document-units="mm"
     showgrid="false"
     inkscape:zoom="0.2102413"
     inkscape:cx="401.91912"
     inkscape:cy="561.25984"
     inkscape:window-width="1309"
     inkscape:window-height="456"
     inkscape:window-x="0"
     inkscape:window-y="25"
     inkscape:window-maximized="0"
     inkscape:current-layer="layer1" />
  <defs
     id="defs2">
    <inkscape:perspective
       sodipodi:type="inkscape:persp3d"
       inkscape:vp_x="0 : 148.5 : 1"
       inkscape:vp_y="0 : 1000 : 0"
       inkscape:vp_z="210 : 148.5 : 1"
       inkscape:persp3d-origin="105 : 99 : 1"
       id="perspective296" />
  </defs>
  <g
     inkscape:label="Layer 1"
     inkscape:groupmode="layer"
     id="layer1">
    <path
       sodipodi:type="spiral"
       style="fill:#0000ff;fill-rule:evenodd;stroke:#000000;stroke-width:0.264583"
       id="path112"
       sodipodi:cx="64.182198"
       sodipodi:cy="127.10593"
       sodipodi:expansion="1"
       sodipodi:revolution="3"
       sodipodi:radius="60.459194"
       sodipodi:argument="-18.807913"
       sodipodi:t0="0"
       d="m 64.182198,127.10593 c 3.028699,0.12619 1.324142,4.14488 -0.209749,5.03389 -4.156748,2.40917 -8.779101,-1.50152 -9.858048,-5.45339 -1.929983,-7.06898 3.985892,-13.54771 10.697042,-14.6822 9.848882,-1.6649 18.402631,6.48408 19.506348,15.94069 1.47108,12.60417 -8.984566,23.29102 -21.184335,24.3305 C 47.781292,153.58349 34.937405,140.78991 33.978808,125.84744 32.817819,107.7501 47.965397,92.736841 65.650436,91.868639 86.491643,90.845492 103.68153,108.35637 104.45338,128.78391 105.34452,152.36833 85.464477,171.73948 62.294462,172.41101 35.967219,173.17405 14.411646,150.92089 13.843215,125.00844 13.205521,95.938595 37.834583,72.196347 66.48943,71.733046 c 31.812311,-0.514353 57.74289,26.49264 58.09955,57.889864" />
    <path
       sodipodi:type="spiral"
       style="fill:#ff00ff;fill-rule:evenodd;stroke:#000000;stroke-width:0.264583"
       id="path114"
       sodipodi:cx="46.563557"
       sodipodi:cy="211.42372"
       sodipodi:expansion="1"
       sodipodi:revolution="3"
       sodipodi:radius="27.600502"
       sodipodi:argument="-18.096405"
       sodipodi:t0="0"
       d="m 46.563557,211.42372 c 1.009567,0.94647 -0.777736,1.82783 -1.573093,1.67797 -2.155368,-0.40612 -2.587817,-3.13615 -1.782841,-4.82415 1.439915,-3.01945 5.416621,-3.49601 8.075211,-1.88772 3.901588,2.36024 4.429926,7.7276 1.992589,11.32627 -3.248586,4.79647 -10.049347,5.37473 -14.577329,2.09746 -5.698004,-4.1241 -6.325148,-12.37621 -2.202338,-17.82838 4.993277,-6.60332 14.705967,-7.27882 21.079449,-2.30722 7.510927,5.85887 8.234528,17.03752 2.412085,24.33051 -6.72224,8.42005 -19.370257,9.1916 -27.581566,2.51696 -9.330211,-7.58415 -10.149623,-21.70384 -2.621834,-30.83262 8.44504,-10.24112 24.038045,-11.10834 34.083685,-2.72671 11.152564,9.30519 12.067568,26.37271 2.831582,37.33474" />
    <path
       sodipodi:type="spiral"
       style="fill:#ff6600;fill-rule:evenodd;stroke:#000000;stroke-width:0.264583"
       id="path116"
       sodipodi:cx="124.58898"
       sodipodi:cy="213.94067"
       sodipodi:expansion="1"
       sodipodi:revolution="3"
       sodipodi:radius="63.8978"
       sodipodi:argument="-19.859665"
       sodipodi:t0="0"
       d="m 124.58898,213.94067 c 1.70365,-2.71321 4.49787,0.95788 4.50953,2.83157 0.0316,5.07759 -5.98047,7.2692 -10.17267,6.1875 -7.49886,-1.9349 -10.34278,-10.76033 -7.86546,-17.51377 3.63557,-9.91095 15.59812,-13.48832 24.85488,-9.54343 12.3378,5.25793 16.66337,20.45556 11.22139,32.19598 -6.84819,14.77412 -25.32216,19.85346 -39.53708,12.89935 -17.216188,-8.42235 -23.052206,-30.19385 -14.577319,-46.87818 9.987359,-19.66191 35.068729,-26.25638 54.219289,-16.25528 22.11008,11.54666 29.46417,39.94572 17.93324,61.56039 C 152.0726,263.98476 120.35057,272.09931 96.273288,259.036 69.262216,244.38095 60.386596,209.33222 74.984119,182.79341 91.190135,153.3303 129.5683,143.69316 158.56781,159.82628" />
    <path
       sodipodi:type="spiral"
       style="fill:#2b0000;fill-rule:evenodd;stroke:#000000;stroke-width:0.264583"
       id="path118"
       sodipodi:cx="149.75848"
       sodipodi:cy="39.012711"
       sodipodi:expansion="1"
       sodipodi:revolution="3"
       sodipodi:radius="46.631535"
       sodipodi:argument="-17.332762"
       sodipodi:t0="0"
       d="m 149.75848,39.012711 c 0.1262,2.334622 -3.08476,1.321932 -3.88029,0.209748 -2.15585,-3.013949 0.50616,-6.850878 3.4608,-7.970341 5.28515,-2.002457 10.69504,2.062331 12.06038,7.131348 2.0037,7.438986 -3.62274,14.606484 -10.80189,16.15043 -9.56868,2.057838 -18.5438,-5.182464 -20.24048,-14.472444 -2.1351,-11.690491 6.74131,-22.493915 18.14299,-24.33052 13.80897,-2.224375 26.45135,8.29955 28.42057,21.81354 2.32065,15.92577 -9.8574,30.41336 -25.48409,32.51061 C 133.39484,72.47644 117.05805,58.640089 114.83582,40.900446 112.31078,20.743535 127.80822,2.5548201 147.661,0.20974652 169.93282,-2.4210716 189.97539,14.739439 192.44174,36.705479 c 2.73813,24.386467 -16.08688,46.284315 -40.16628,48.870788" />
    <path
       sodipodi:type="spiral"
       style="fill:#800080;fill-rule:evenodd;stroke:#000000;stroke-width:0.264583"
       id="path120"
       sodipodi:cx="39.012711"
       sodipodi:cy="46.563557"
       sodipodi:expansion="1"
       sodipodi:revolution="3"
       sodipodi:radius="34.898567"
       sodipodi:argument="-19.297075"
       sodipodi:t0="0"
       d="m 39.012711,46.563557 c 1.577448,-0.757174 1.798912,1.752805 1.258472,2.621822 -1.464558,2.354982 -4.880491,1.616087 -6.502118,-0.104877 -2.90071,-3.078399 -1.643612,-7.984089 1.468227,-10.382413 4.566749,-3.519638 11.135411,-1.687507 14.262709,2.831576 4.168198,6.023228 1.739309,14.304409 -4.194926,18.143005 C 37.837446,64.503151 27.823063,61.468061 23.281774,54.114394 17.781666,45.208118 21.427789,33.449895 30.2034,28.210798 40.545155,22.036702 54.053435,26.296634 59.987292,36.495774 66.838165,48.271085 61.962691,63.53338 50.338967,70.159961 37.131352,77.689504 20.112361,72.197332 12.794484,59.148285 4.5849306,44.509228 10.694607,25.73164 25.169509,17.723507 41.239393,8.8329608 61.776976,15.560726 70.474583,31.461882" />
    <path
       sodipodi:type="spiral"
       style="fill:#00ffff;fill-rule:evenodd;stroke:#000000;stroke-width:0.264583"
       id="path122"
       sodipodi:cx="25.169491"
       sodipodi:cy="281.89828"
       sodipodi:expansion="1"
       sodipodi:revolution="3"
       sodipodi:radius="14.070173"
       sodipodi:argument="-20.240499"
       sodipodi:t0="0"
       d="m 25.169491,281.89828 c 0.126195,-0.69407 0.997862,-0.17232 1.153602,0.20975 0.422044,1.03538 -0.627581,1.97546 -1.573092,2.09746 -1.691297,0.21822 -2.994988,-1.35313 -3.041316,-2.93644 -0.06799,-2.32357 2.084625,-4.03396 4.299785,-3.98517 2.952461,0.065 5.080578,2.81772 4.92903,5.66313 -0.190707,3.58065 -3.551465,6.13101 -7.026479,5.87289 -4.208706,-0.31263 -7.18364,-4.28554 -6.816743,-8.38983 0.432375,-4.83676 5.019821,-8.23764 9.753172,-7.7606 5.464841,0.55076 9.292546,5.75424 8.704457,11.11652 -0.668224,6.09296 -6.488753,10.3481 -12.479865,9.64831 -6.721123,-0.78505 -11.404114,-7.22334 -10.592171,-13.84321 0.90141,-7.34931 7.957981,-12.46048 15.206559,-11.53603" />
    <path
       sodipodi:type="spiral"
       style="fill:#00ff00;fill-rule:evenodd;stroke:#000000;stroke-width:0.264583"
       id="path124"
       sodipodi:cx="184.99576"
       sodipodi:cy="281.89828"
       sodipodi:expansion="1"
       sodipodi:revolution="3"
       sodipodi:radius="29.487001"
       sodipodi:argument="-21.115091"
       sodipodi:t0="0"
       d="m 184.99576,281.89828 c -0.94647,-1.13576 1.06403,-1.83616 1.88771,-1.57309 2.23212,0.71291 2.33308,3.66417 1.25848,5.34852 -1.92221,3.01289 -6.20109,2.99733 -8.80932,0.94386 -3.82769,-3.01356 -3.68488,-8.77372 -0.62925,-12.27013 4.07267,-4.66016 11.3592,-4.38254 15.73093,-0.31463 5.50138,5.11906 5.0855,13.95084 2e-5,19.19174 -6.15921,6.34743 -16.54597,5.79153 -22.65255,-0.3146 -7.19639,-7.19586 -6.49948,-19.14326 0.62922,-26.11335 8.23036,-8.04725 21.742,-7.20872 29.57415,0.94383 8.8994,9.26345 7.91886,24.34176 -1.25844,33.03496 -10.29555,9.75246 -26.94226,8.62965 -36.49577,-1.57306 -10.6062,-11.32695 -9.34092,-29.54332 1.88768,-39.95657" />
    <path
       sodipodi:type="spiral"
       style="fill:#ffff00;fill-rule:evenodd;stroke:#000000;stroke-width:0.264583"
       id="path126"
       sodipodi:cx="70.474571"
       sodipodi:cy="254.21185"
       sodipodi:expansion="1"
       sodipodi:revolution="3"
       sodipodi:radius="45.374947"
       sodipodi:argument="-20.364853"
       sodipodi:t0="0"
       d="m 70.474571,254.21185 c 0.126198,-2.27152 3.124232,-0.95058 3.775424,0.20975 1.76469,3.14442 -1.218084,6.57252 -4.194922,7.3411 -5.324864,1.37481 -10.125206,-3.13203 -10.906773,-8.18009 -1.14698,-7.40825 5.057236,-13.74252 12.165267,-14.47245 9.473887,-0.97288 17.384927,6.98452 18.038122,16.15044 0.82198,11.53437 -8.912317,21.03982 -20.135611,21.60379 -13.592914,0.68306 -24.701848,-10.84031 -25.169472,-24.12078 -0.551078,-15.65057 12.768419,-28.36834 28.105957,-28.73515 17.707794,-0.42348 32.037817,14.6966 32.300817,32.09113 0.29884,19.76478 -16.624825,35.70939 -36.076298,35.8665 -21.821613,0.17625 -39.382471,-18.55311 -39.43217,-40.06148 -0.05518,-23.87836 20.481418,-43.05669 44.046646,-42.99784" />
    <path
       sodipodi:type="spiral"
       style="fill:#800000;fill-rule:evenodd;stroke:#000000;stroke-width:0.264583"
       id="path128"
       sodipodi:cx="158.56779"
       sodipodi:cy="124.58898"
       sodipodi:expansion="1"
       sodipodi:revolution="3"
       sodipodi:radius="67.089798"
       sodipodi:argument="-20.825245"
       sodipodi:t0="0"
       d="m 158.56779,124.58898 c -1.32505,-3.09179 3.51395,-3.31153 5.13877,-2.20233 4.40318,3.00586 2.70417,9.50623 -0.7341,12.47987 -6.15024,5.31914 -15.4695,2.50278 -19.82097,-3.67053 -6.38597,-9.05959 -2.32893,-21.52577 6.60696,-27.16209 11.91014,-7.512321 27.61663,-2.1688 34.50319,9.54341 8.66603,14.73862 2.01621,33.72437 -12.47984,41.84429 -17.55665,9.83431 -39.84169,1.86803 -49.18539,-15.41627 -11.01123,-20.36896 -1.72265,-45.965014 18.3527,-56.526503 23.1778,-12.193657 52.09232,-1.579135 63.86761,21.289143 13.37982,25.98438 1.43691,58.22243 -24.22558,71.2087 -28.78943,14.56864 -64.35458,1.29564 -78.54981,-27.162 -15.759387,-31.59338 -1.15505,-70.48828 30.09845,-85.89092" />
    <g
       sodipodi:type="inkscape:box3d"
       id="g298"
       style="fill:#800080"
       inkscape:perspectiveID="#perspective296"
       inkscape:corner0="19.858586 : -0.034499986 : 0 : 1"
       inkscape:corner7="3.1717172 : -0.37049993 : 0.25 : 1">
      <path
         sodipodi:type="inkscape:box3dside"
         id="path310"
         style="fill:#e9e9ff;fill-rule:evenodd;stroke:none;stroke-linejoin:round"
         inkscape:box3dsidetype="11"
         d="m 7.461419,152.47943 28.158228,15.01771 v 75.98857 L 7.461419,168.39712 Z"
         points="35.619647,167.49714 35.619647,243.48571 7.461419,168.39712 7.461419,152.47943 " />
      <path
         sodipodi:type="inkscape:box3dside"
         id="path300"
         style="fill:#353564;fill-rule:evenodd;stroke:none;stroke-linejoin:round"
         inkscape:box3dsidetype="6"
         d="m 5.0338984,152.52712 v 16.10847 l 2.4275206,-0.23847 v -15.91769 z"
         points="5.0338984,168.63559 7.461419,168.39712 7.461419,152.47943 5.0338984,152.52712 " />
      <path
         sodipodi:type="inkscape:box3dside"
         id="path308"
         style="fill:#afafde;fill-rule:evenodd;stroke:none;stroke-linejoin:round"
         inkscape:box3dsidetype="13"
         d="M 5.0338984,168.63559 25.169492,249.17795 35.619647,243.48571 7.461419,168.39712 Z"
         points="25.169492,249.17795 35.619647,243.48571 7.461419,168.39712 5.0338984,168.63559 " />
      <path
         sodipodi:type="inkscape:box3dside"
         id="path302"
         style="fill:#4d4d9f;fill-rule:evenodd;stroke:none;stroke-linejoin:round"
         inkscape:box3dsidetype="5"
         d="M 5.0338984,152.52712 25.169492,168.63559 35.619647,167.49714 7.461419,152.47943 Z"
         points="25.169492,168.63559 35.619647,167.49714 7.461419,152.47943 5.0338984,152.52712 " />
      <path
         sodipodi:type="inkscape:box3dside"
         id="path306"
         style="fill:#d7d7ff;fill-rule:evenodd;stroke:none;stroke-linejoin:round"
         inkscape:box3dsidetype="14"
         d="m 25.169492,168.63559 v 80.54236 l 10.450155,-5.69224 v -75.98857 z"
         points="25.169492,249.17795 35.619647,243.48571 35.619647,167.49714 25.169492,168.63559 " />
      <path
         sodipodi:type="inkscape:box3dside"
         id="path304"
         style="fill:#8686bf;fill-rule:evenodd;stroke:none;stroke-linejoin:round"
         inkscape:box3dsidetype="3"
         d="m 5.0338984,152.52712 20.1355936,16.10847 v 80.54236 L 5.0338984,168.63559 Z"
         points="25.169492,168.63559 25.169492,249.17795 5.0338984,168.63559 5.0338984,152.52712 " />
    </g>
    <rect
       style="fill:#800080;stroke-width:0.264583"
       id="rect364"
       width="16.360168"
       height="42.788136"
       x="72.991524"
       y="20.135592" />
    <path
       sodipodi:type="star"
       style="fill:#008000;stroke-width:0.264583"
       id="path418"
       inkscape:flatsided="false"
       sodipodi:sides="5"
       sodipodi:cx="122.07204"
       sodipodi:cy="178.70338"
       sodipodi:r1="46.170757"
       sodipodi:r2="23.085379"
       sodipodi:arg1="1.2662854"
       sodipodi:arg2="1.894604"
       inkscape:rounded="0"
       inkscape:randomized="0"
       d="m 135.91526,222.75 -21.1885,-22.16097 -30.267749,4.89119 14.528722,-26.99957 -14.005048,-27.27488 30.167745,5.47431 21.61215,-21.748 4.11597,30.38289 27.3621,13.83388 -27.62394,13.30334 z"
       inkscape:transform-center-x="-4.2777887"
       inkscape:transform-center-y="0.13765437" />
    <path
       sodipodi:type="star"
       style="fill:#d40000;stroke-width:0.264583"
       id="path420"
       inkscape:flatsided="false"
       sodipodi:sides="5"
       sodipodi:cx="11.326271"
       sodipodi:cy="13.84322"
       sodipodi:r1="9.8290005"
       sodipodi:r2="4.9145002"
       sodipodi:arg1="0.69473828"
       sodipodi:arg2="1.3230568"
       inkscape:rounded="0"
       inkscape:randomized="0"
       d="M 18.877118,20.135593 12.531371,18.607676 7.675209,22.968952 7.1673999,16.461636 1.5189433,13.19086 7.5508474,10.697033 8.9160712,4.3143065 13.151802,9.2803534 19.644013,8.6063874 16.229935,14.1694 Z"
       inkscape:transform-center-x="0.74479287"
       inkscape:transform-center-y="-0.20159044" />
  </g>
</svg>


